HIERARCHY
ROOT hip
{
  OFFSET 0 0 0
  CHANNELS 6 Xposition Yposition Zposition Zrotation Yrotation Xrotation
  JOINT abdomen
  {
    OFFSET 0 20.6881 -0.73152
    CHANNELS 3 Zrotation Xrotation Yrotation
    JOINT chest
    {
      OFFSET 0 11.7043 -0.48768
      CHANNELS 3 Zrotation Xrotation Yrotation
      JOINT neck
      {
        OFFSET 0 22.1894 -2.19456
        CHANNELS 3 Zrotation Xrotation Yrotation
        JOINT head
        {
          OFFSET -0.24384 7.07133 1.2192
          CHANNELS 3 Zrotation Xrotation Yrotation
          JOINT leftEye
          {
            OFFSET 4.14528 8.04674 8.04672
            CHANNELS 3 Zrotation Xrotation Yrotation
            End Site
            {
              OFFSET 1 0 0
            }
          }
          JOINT rightEye
          {
            OFFSET -3.6576 8.04674 8.04672
            CHANNELS 3 Zrotation Xrotation Yrotation
            End Site
            {
              OFFSET 1 0 0
            }
          }
        }
      }
      JOINT rCollar
      {
        OFFSET -2.68224 19.2634 -4.8768
        CHANNELS 3 Zrotation Xrotation Yrotation
        JOINT rShldr
        {
          OFFSET -8.77824 -1.95073 1.46304
          CHANNELS 3 Zrotation Xrotation Yrotation
          JOINT rForeArm
          {
            OFFSET -28.1742 -1.7115 0.48768
            CHANNELS 3 Zrotation Xrotation Yrotation
            JOINT rHand
            {
              OFFSET -22.5879 0.773209 7.07136
              CHANNELS 3 Zrotation Xrotation Yrotation
              JOINT rThumb1
              {
                OFFSET -1.2192 -0.487915 3.41376
                CHANNELS 3 Zrotation Xrotation Yrotation
                JOINT rThumb2
                {
                  OFFSET -3.37035 -0.52449 3.41376
                  CHANNELS 3 Zrotation Xrotation Yrotation
                  End Site
                  {
                    OFFSET -1.78271 -1.18214 1.43049
                  }
                }
              }
              JOINT rIndex1
              {
                OFFSET -7.75947 0.938293 5.60832
                CHANNELS 3 Zrotation Xrotation Yrotation
                JOINT rIndex2
                {
                  OFFSET -2.54057 -0.884171 1.56538
                  CHANNELS 3 Zrotation Xrotation Yrotation
                  End Site
                  {
                    OFFSET -1.62519 -0.234802 1.16502
                  }
                }
              }
              JOINT rMid1
              {
                OFFSET -8.24714 1.18213 3.41376
                CHANNELS 3 Zrotation Xrotation Yrotation
                JOINT rMid2
                {
                  OFFSET -3.10165 -0.590103 1.0647
                  CHANNELS 3 Zrotation Xrotation Yrotation
                  End Site
                  {
                    OFFSET -2.48547 -0.328903 0.83742
                  }
                }
              }
              JOINT rRing1
              {
                OFFSET -8.82822 0.546677 1.51678
                CHANNELS 3 Zrotation Xrotation Yrotation
                JOINT rRing2
                {
                  OFFSET -2.60934 -0.819778 -0.0198488
                  CHANNELS 3 Zrotation Xrotation Yrotation
                  End Site
                  {
                    OFFSET -2.33842 -0.294052 0.168128
                  }
                }
              }
              JOINT rPinky1
              {
                OFFSET -8.27202 -0.0477905 -0.4584
                CHANNELS 3 Zrotation Xrotation Yrotation
                JOINT rPinky2
                {
                  OFFSET -1.82734 -0.647385 -0.700984
                  CHANNELS 3 Zrotation Xrotation Yrotation
                  End Site
                  {
                    OFFSET -1.69225 -0.51767 -0.607171
                  }
                }
              }
            }
          }
        }
      }
      JOINT lCollar
      {
        OFFSET 2.68224 19.2634 -4.8768
        CHANNELS 3 Zrotation Xrotation Yrotation
        JOINT lShldr
        {
          OFFSET 8.77824 -1.95073 1.46304
          CHANNELS 3 Zrotation Xrotation Yrotation
          JOINT lForeArm
          {
            OFFSET 28.1742 -1.7115 0.48768
            CHANNELS 3 Zrotation Xrotation Yrotation
            JOINT lHand
            {
              OFFSET 22.5879 0.773209 7.07136
              CHANNELS 3 Zrotation Xrotation Yrotation
              JOINT lThumb1
              {
                OFFSET 1.2192 -0.487915 3.41376
                CHANNELS 3 Zrotation Xrotation Yrotation
                JOINT lThumb2
                {
                  OFFSET 3.37035 -0.52449 3.41376
                  CHANNELS 3 Zrotation Xrotation Yrotation
                  End Site
                  {
                    OFFSET 1.78271 -1.18214 1.43049
                  }
                }
              }
              JOINT lIndex1
              {
                OFFSET 7.75947 0.938293 5.60832
                CHANNELS 3 Zrotation Xrotation Yrotation
                JOINT lIndex2
                {
                  OFFSET 2.54057 -0.884171 1.56538
                  CHANNELS 3 Zrotation Xrotation Yrotation
                  End Site
                  {
                    OFFSET 1.62519 -0.234802 1.16502
                  }
                }
              }
              JOINT lMid1
              {
                OFFSET 8.24714 1.18213 3.41376
                CHANNELS 3 Zrotation Xrotation Yrotation
                JOINT lMid2
                {
                  OFFSET 3.10165 -0.590103 1.0647
                  CHANNELS 3 Zrotation Xrotation Yrotation
                  End Site
                  {
                    OFFSET 2.48547 -0.328903 0.83742
                  }
                }
              }
              JOINT lRing1
              {
                OFFSET 8.82822 0.546677 1.51678
                CHANNELS 3 Zrotation Xrotation Yrotation
                JOINT lRing2
                {
                  OFFSET 2.60934 -0.819778 -0.0198488
                  CHANNELS 3 Zrotation Xrotation Yrotation
                  End Site
                  {
                    OFFSET 2.33842 -0.294052 0.168128
                  }
                }
              }
              JOINT lPinky1
              {
                OFFSET 8.27202 -0.0477905 -0.4584
                CHANNELS 3 Zrotation Xrotation Yrotation
                JOINT lPinky2
                {
                  OFFSET 1.82734 -0.647385 -0.700984
                  CHANNELS 3 Zrotation Xrotation Yrotation
                  End Site
                  {
                    OFFSET 1.69225 -0.51767 -0.607171
                  }
                }
              }
            }
          }
        }
      }
    }
  }
  JOINT rButtock
  {
    OFFSET -8.77824 4.35084 1.2192
    CHANNELS 3 Zrotation Xrotation Yrotation
    JOINT rThigh
    {
      OFFSET 0 -1.70687 -2.19456
      CHANNELS 3 Zrotation Xrotation Yrotation
      JOINT rShin
      {
        OFFSET 0 -36.8199 0.73152
        CHANNELS 3 Zrotation Xrotation Yrotation
        JOINT rFoot
        {
          OFFSET 0.73152 -45.1104 -5.12064
          CHANNELS 3 Zrotation Xrotation Yrotation
          End Site
          {
            OFFSET -1.1221 -3.69964 12.103
          }
        }
      }
    }
  }
  JOINT lButtock
  {
    OFFSET 8.77824 4.35084 1.2192
    CHANNELS 3 Zrotation Xrotation Yrotation
    JOINT lThigh
    {
      OFFSET 0 -1.70687 -2.19456
      CHANNELS 3 Zrotation Xrotation Yrotation
      JOINT lShin
      {
        OFFSET 0 -36.8199 0.73152
        CHANNELS 3 Zrotation Xrotation Yrotation
        JOINT lFoot
        {
          OFFSET -0.73152 -45.1104 -5.12064
          CHANNELS 3 Zrotation Xrotation Yrotation
          End Site
          {
            OFFSET 1.1221 -3.69964 12.103
          }
        }
      }
    }
  }
}
MOTION
Frames:	5
Frame Time:	0.00833333
-2.56488 71.9088 -14.5619 5.9249 -38.8613 -12.7541 0.078734 31.1139 2.90648 2.3359 -4.41069 0.771267 -8.88584 -8.06584 -1.42399 7.4063 6.16797 0.346039 -0.0 0.0 0.0 -0.0 0.0 0.0 1.45531e-13 6.36059e-14 -7.34609e-13 62.0737 36.4056 17.3961 -25.0779 -21.2641 53.2266 -1.2498 30.0222 4.65834 -2.96053e-09 6.82052e-09 1.63363e-09 -5.07099e-09 1.16374e-08 2.88675e-09 -2.96052e-09 6.82051e-09 1.63361e-09 7.73091 5.47488 0.417314 -2.96053e-09 6.8205e-09 1.63362e-09 2.90554 0.965183 0.102902 -2.96052e-09 6.82051e-09 1.63362e-09 10.2786 0.731801 0.0259123 -2.96054e-09 6.82052e-09 1.63363e-09 2.22167 -0.733487 -0.20892 1.4545e-13 6.36161e-14 -7.35006e-13 -68.5532 42.0222 -18.8922 24.7634 -20.5972 -52.1237 0.317203 15.8217 -2.28249 2.29789e-09 -1.90814e-09 1.51398e-10 3.97621e-09 -3.34182e-09 2.36066e-10 2.29789e-09 -1.90814e-09 1.51401e-10 -7.73091 5.47488 -0.417314 2.2979e-09 -1.90814e-09 1.51391e-10 -2.90554 0.965183 -0.102902 2.29789e-09 -1.90814e-09 1.51391e-10 -10.2786 0.731801 -0.0259123 2.2979e-09 -1.90814e-09 1.51382e-10 -2.22167 -0.733487 0.20892 -2.03217e-16 0.0 -3.88251e-19 -29.822 -55.0599 -28.5316 -2.18002 70.3216 2.38036 0.594117 12.9552 -11.7162 2.03217e-16 0.0 3.88251e-19 57.7199 -49.0798 66.077 176.779 64.1408 -178.28 1.02761 16.1199 -18.5081
-2.57991 71.9055 -14.5597 6.0235 -38.6035 -12.5156 0.318368 31.1512 2.82117 2.28714 -4.44274 0.76476 -8.86826 -8.01915 -1.3743 7.03105 6.35757 0.434474 -0.0 0.0 0.0 -0.0 0.0 0.0 3.3293e-14 -8.6744e-14 -5.53727e-13 61.8237 36.6289 17.405 -25.1309 -21.3799 53.4159 -1.22988 29.8111 4.61864 -2.29314e-09 5.20396e-09 1.45701e-09 -3.92456e-09 8.86766e-09 2.56774e-09 -2.29312e-09 5.20395e-09 1.457e-09 7.73091 5.47488 0.417314 -2.29313e-09 5.20394e-09 1.45701e-09 2.90554 0.965183 0.102902 -2.29313e-09 5.20396e-09 1.45701e-09 10.2786 0.731801 0.0259123 -2.29314e-09 5.20396e-09 1.45701e-09 2.22167 -0.733487 -0.20892 3.32453e-14 -8.67203e-14 -5.54092e-13 -68.6575 42.0666 -18.8067 24.7864 -20.645 -52.2028 0.324948 16.0091 -2.31098 2.69148e-09 -2.46649e-09 -2.05771e-11 4.65341e-09 -4.31331e-09 -6.66369e-11 2.69148e-09 -2.46648e-09 -2.05662e-11 -7.73091 5.47488 -0.417314 2.69149e-09 -2.46649e-09 -2.05813e-11 -2.90554 0.965183 -0.102902 2.69148e-09 -2.46648e-09 -2.05807e-11 -10.2786 0.731801 -0.0259123 2.69149e-09 -2.46648e-09 -2.05886e-11 -2.22167 -0.733487 0.20892 -2.03217e-16 0.0 -3.88251e-19 -29.7858 -55.1516 -28.4596 -2.14123 70.0796 2.34418 0.560172 12.7407 -11.8041 2.03217e-16 0.0 3.88251e-19 57.8314 -49.2858 66.3407 176.773 64.1999 -178.271 1.04597 16.1502 -18.5339
-2.61068 71.8961 -14.5483 6.0321 -38.42 -12.1937 0.607268 31.1765 2.71724 2.24373 -4.46895 0.756959 -8.84333 -7.95665 -1.32917 6.59699 6.52055 0.514447 -0.0 0.0 0.0 -0.0 0.0 0.0 -1.39849e-13 -3.11019e-13 -1.65321e-13 61.5438 36.8842 17.4067 -25.1875 -21.5044 53.6195 -1.20492 29.5422 4.56836 -7.46917e-10 1.52042e-09 8.95092e-10 -1.27109e-09 2.56503e-09 1.56419e-09 -7.46903e-10 1.52041e-09 8.95075e-10 7.73091 5.47488 0.417314 -7.46908e-10 1.52041e-09 8.95087e-10 2.90554 0.965183 0.102902 -7.4691e-10 1.52042e-09 8.95087e-10 10.2786 0.731801 0.0259123 -7.46921e-10 1.52043e-09 8.95094e-10 2.22167 -0.733487 -0.20892 -1.39851e-13 -3.10978e-13 -1.65622e-13 -68.7908 42.1213 -18.7095 24.8105 -20.6951 -52.2859 0.334027 16.2248 -2.34384 2.70378e-09 -2.71866e-09 -2.46616e-10 4.67025e-09 -4.74919e-09 -4.59209e-10 2.70377e-09 -2.71864e-09 -2.46593e-10 -7.73091 5.47488 -0.417314 2.70378e-09 -2.71865e-09 -2.46617e-10 -2.90554 0.965183 -0.102902 2.70377e-09 -2.71865e-09 -2.46616e-10 -10.2786 0.731801 -0.0259123 2.70379e-09 -2.71865e-09 -2.46621e-10 -2.22167 -0.733487 0.20892 -2.03217e-16 0.0 -3.88251e-19 -29.7433 -55.2331 -28.4167 -2.10163 69.8228 2.30584 0.542278 12.6123 -11.873 2.03217e-16 0.0 3.88251e-19 57.9921 -49.5025 66.636 176.768 64.2537 -178.259 1.05374 16.1496 -18.5754
-2.64159 71.8898 -14.5359 6.156 -38.3595 -11.8658 0.900189 31.1917 2.60446 2.20899 -4.49079 0.747222 -8.81525 -7.89784 -1.28571 6.15647 6.66553 0.592844 -0.0 0.0 0.0 -0.0 0.0 0.0 -2.96737e-13 -5.07016e-13 2.49329e-13 61.2602 37.1447 17.4189 -25.2405 -21.6219 53.8131 -1.18126 29.282 4.52006 9.22316e-10 -2.41969e-09 2.02669e-10 1.59189e-09 -4.17113e-09 3.3238e-10 9.22331e-10 -2.4197e-09 2.02653e-10 7.73091 5.47488 0.417314 9.22325e-10 -2.41971e-09 2.02663e-10 2.90554 0.965183 0.102902 9.22319e-10 -2.41969e-09 2.02665e-10 10.2786 0.731801 0.0259123 9.2231e-10 -2.41969e-09 2.02673e-10 2.22167 -0.733487 -0.20892 -2.96698e-13 -5.06959e-13 2.49093e-13 -68.927 42.1766 -18.6061 24.8336 -20.7432 -52.3657 0.34287 16.43 -2.37518 2.37236e-09 -2.65988e-09 -4.60163e-10 4.09317e-09 -4.64136e-09 -8.26114e-10 2.37235e-09 -2.65986e-09 -4.60129e-10 -7.73091 5.47488 -0.417314 2.37236e-09 -2.65988e-09 -4.60161e-10 -2.90554 0.965183 -0.102902 2.37235e-09 -2.65988e-09 -4.60159e-10 -10.2786 0.731801 -0.0259123 2.37236e-09 -2.65988e-09 -4.60162e-10 -2.22167 -0.733487 0.20892 -2.03217e-16 0.0 -3.88251e-19 -29.6809 -55.3137 -28.3517 -2.06028 69.5453 2.26502 0.534592 12.5348 -11.9208 2.03217e-16 0.0 3.88251e-19 58.1726 -49.7168 66.9536 176.761 64.3091 -178.246 1.05075 16.1144 -18.6395
-2.68133 71.893 -14.5243 6.2884 -38.3213 -11.5339 1.15187 31.1987 2.49262 2.18622 -4.5097 0.734909 -8.78818 -7.86218 -1.24097 5.76167 6.8011 0.676565 -0.0 0.0 0.0 -0.0 0.0 0.0 -3.60215e-13 -5.72531e-13 5.08938e-13 60.9989 37.3838 17.4599 -25.2833 -21.7175 53.9717 -1.16477 29.0972 4.48598 1.95875e-09 -4.80598e-09 -3.65452e-10 3.36685e-09 -8.24148e-09 -6.71421e-10 1.95877e-09 -4.80599e-09 -3.65468e-10 7.73091 5.47488 0.417314 1.95876e-09 -4.80599e-09 -3.65458e-10 2.90554 0.965183 0.102902 1.95875e-09 -4.80598e-09 -3.65454e-10 10.2786 0.731801 0.0259123 1.95875e-09 -4.80598e-09 -3.65446e-10 2.22167 -0.733487 -0.20892 -3.60155e-13 -5.72467e-13 5.0874e-13 -69.0398 42.2228 -18.502 24.8535 -20.7849 -52.4349 0.349731 16.5858 -2.39905 1.7348e-09 -2.28541e-09 -5.94662e-10 2.98861e-09 -3.98171e-09 -1.05182e-09 1.73479e-09 -2.28538e-09 -5.94624e-10 -7.73091 5.47488 -0.417314 1.7348e-09 -2.2854e-09 -5.94659e-10 -2.90554 0.965183 -0.102902 1.73479e-09 -2.2854e-09 -5.94656e-10 -10.2786 0.731801 -0.0259123 1.73481e-09 -2.2854e-09 -5.94659e-10 -2.22167 -0.733487 0.20892 -2.03217e-16 0.0 -3.88251e-19 -29.5842 -55.4025 -28.2128 -2.01635 69.2417 2.22151 0.531027 12.4729 -11.9452 2.03217e-16 0.0 3.88251e-19 58.3428 -49.9155 67.2832 176.754 64.3733 -178.23 1.03673 16.0409 -18.7331
